<?xml version="1.0" encoding="utf-8"?>
<!-- Generator: Adobe Illustrator 26.0.1, SVG Export Plug-In . SVG Version: 6.00 Build 0)  -->
<svg version="1.1" id="Capa_1" xmlns="http://www.w3.org/2000/svg" xmlns:xlink="http://www.w3.org/1999/xlink" x="0px" y="0px"
	 viewBox="0 0 474 477" style="enable-background:new 0 0 474 477;" xml:space="preserve">
<style type="text/css">
	.st0{fill-rule:evenodd;clip-rule:evenodd;fill:#2EBBE0;}
	.st1{fill-rule:evenodd;clip-rule:evenodd;fill:#FAC20C;}
	.st2{fill-rule:evenodd;clip-rule:evenodd;fill:#A21C43;}
	.st3{fill-rule:evenodd;clip-rule:evenodd;fill:#EC692F;}
	.st4{fill-rule:evenodd;clip-rule:evenodd;fill:#DD1868;}
	.st5{fill-rule:evenodd;clip-rule:evenodd;fill:#F49B2D;}
	.st6{fill-rule:evenodd;clip-rule:evenodd;fill:#BD8B30;}
	.st7{fill-rule:evenodd;clip-rule:evenodd;fill:#3F7E45;}
	.st8{fill-rule:evenodd;clip-rule:evenodd;fill:#1896D3;}
	.st9{fill-rule:evenodd;clip-rule:evenodd;fill:#64B348;}
	.st10{fill-rule:evenodd;clip-rule:evenodd;fill:#03699F;}
	.st11{fill-rule:evenodd;clip-rule:evenodd;fill:#1A486A;}
	.st12{filter:url(#Adobe_OpacityMaskFilter);}
	.st13{fill-rule:evenodd;clip-rule:evenodd;fill:#FFFFFF;}
	.st14{mask:url(#mask-2_00000178911341528246259790000008386148226897229227_);fill-rule:evenodd;clip-rule:evenodd;fill:#E4273C;}
	.st15{fill-rule:evenodd;clip-rule:evenodd;fill:#DCA63A;}
	.st16{fill-rule:evenodd;clip-rule:evenodd;fill:#4D9F38;}
	.st17{fill-rule:evenodd;clip-rule:evenodd;fill:#C41D2E;}
	.st18{fill-rule:evenodd;clip-rule:evenodd;fill:#E7422F;}
	.st19{fill:none;stroke:#C41D2E;stroke-width:0.5;stroke-linecap:round;stroke-linejoin:round;}
	.st20{fill:none;stroke:#C41D2E;stroke-width:0.5;stroke-linecap:round;stroke-linejoin:round;stroke-dasharray:1.789,3.578;}
	.st21{fill:none;stroke:#C41D2E;stroke-width:0.5;stroke-linecap:round;stroke-linejoin:round;stroke-dasharray:2.005,4.011;}
	.st22{filter:url(#Adobe_OpacityMaskFilter_00000074407686528877101240000007375116107187068809_);}
	.st23{mask:url(#mask-4_00000159436365637995403880000016367854984144078009_);fill-rule:evenodd;clip-rule:evenodd;fill:#C41D2E;}
	.st24{filter:url(#Adobe_OpacityMaskFilter_00000080198171550636607570000015173563869486448288_);}
	.st25{mask:url(#mask-4_00000128444408428178224190000016176676262907683477_);fill-rule:evenodd;clip-rule:evenodd;fill:#C41D2E;}
	.st26{filter:url(#Adobe_OpacityMaskFilter_00000093137516386912041010000005869320252221618080_);}
	.st27{mask:url(#mask-4_00000170240859263913535540000003514593222732046977_);fill-rule:evenodd;clip-rule:evenodd;fill:#C41D2E;}
	.st28{filter:url(#Adobe_OpacityMaskFilter_00000005973424211601262710000005211373629132367505_);}
	.st29{mask:url(#mask-4_00000070815502061040984640000006492294650984311208_);fill-rule:evenodd;clip-rule:evenodd;fill:#C41D2E;}
	.st30{filter:url(#Adobe_OpacityMaskFilter_00000087406433184805058230000007806815681244048257_);}
	.st31{mask:url(#mask-4_00000121256624284051069770000001767695040598759564_);fill-rule:evenodd;clip-rule:evenodd;fill:#C41D2E;}
	.st32{filter:url(#Adobe_OpacityMaskFilter_00000059267821271704447710000005945175912378862247_);}
	.st33{mask:url(#mask-4_00000032609785171214324240000004796172704019796107_);fill-rule:evenodd;clip-rule:evenodd;fill:#C41D2E;}
	.st34{filter:url(#Adobe_OpacityMaskFilter_00000099658732167945620700000001947289731312764604_);}
	.st35{mask:url(#mask-4_00000129189775605694218540000017039093943273942463_);fill-rule:evenodd;clip-rule:evenodd;fill:#C41D2E;}
	.st36{filter:url(#Adobe_OpacityMaskFilter_00000081609173876096493690000015562325191424054448_);}
	.st37{mask:url(#mask-4_00000144310944968842640170000017668148623396236966_);fill-rule:evenodd;clip-rule:evenodd;fill:#C41D2E;}
	.st38{filter:url(#Adobe_OpacityMaskFilter_00000021090495593637707200000000694651452141447056_);}
	.st39{mask:url(#mask-4_00000107554064195258358510000003884600786589863082_);fill-rule:evenodd;clip-rule:evenodd;fill:#C41D2E;}
	.st40{filter:url(#Adobe_OpacityMaskFilter_00000071531332206762602680000010190007876637505961_);}
	.st41{mask:url(#mask-4_00000059303357170090476930000002269930527823513518_);fill-rule:evenodd;clip-rule:evenodd;fill:#C41D2E;}
	.st42{filter:url(#Adobe_OpacityMaskFilter_00000070831464505218679290000001388823614942790590_);}
	.st43{mask:url(#mask-4_00000021815713272478622720000002574592216890955394_);fill-rule:evenodd;clip-rule:evenodd;fill:#C41D2E;}
	.st44{filter:url(#Adobe_OpacityMaskFilter_00000160868877925762772220000012325979179152385973_);}
	.st45{mask:url(#mask-4_00000142135002696970234180000017351746122690297273_);fill-rule:evenodd;clip-rule:evenodd;fill:#C41D2E;}
	.st46{filter:url(#Adobe_OpacityMaskFilter_00000026851400087278308520000010386658147315636154_);}
	.st47{mask:url(#mask-4_00000046314237765183026230000010719436739199355577_);fill-rule:evenodd;clip-rule:evenodd;fill:#C41D2E;}
	.st48{filter:url(#Adobe_OpacityMaskFilter_00000131342782022166367340000004852239240328898959_);}
	.st49{mask:url(#mask-4_00000016047608484450053990000003349402417943939498_);fill-rule:evenodd;clip-rule:evenodd;fill:#C41D2E;}
	.st50{filter:url(#Adobe_OpacityMaskFilter_00000109714915637683803460000006415214427658894255_);}
	.st51{mask:url(#mask-4_00000109732110304342406760000008653366724237227418_);fill-rule:evenodd;clip-rule:evenodd;fill:#C41D2E;}
	.st52{filter:url(#Adobe_OpacityMaskFilter_00000001660678129997427940000013696509805455404698_);}
	.st53{mask:url(#mask-4_00000005256998580525474190000001986709462790964877_);fill-rule:evenodd;clip-rule:evenodd;fill:#C41D2E;}
	.st54{filter:url(#Adobe_OpacityMaskFilter_00000021077041604626627760000009830848864368735129_);}
	.st55{mask:url(#mask-4_00000088820215341349490640000006451393267928008320_);fill-rule:evenodd;clip-rule:evenodd;fill:#C41D2E;}
</style>
<g id="Page-1">
	<g id="home_modulos-ods-y-colaboradores" transform="translate(-156.000000, -2739.000000)">
		<g id="Group" transform="translate(156.000000, 2701.000000)">
			<g id="Group-78" transform="translate(0.000000, 36.448133)">
				<path id="Fill-1" class="st0" d="M458.7,321.8c0,7-5.7,12.6-12.6,12.6c-7,0-12.6-5.7-12.6-12.6s5.7-12.6,12.6-12.6
					C453.1,309.1,458.7,314.8,458.7,321.8"/>
				<path id="Fill-3" class="st1" d="M414.9,392.4c0,7-5.7,12.6-12.6,12.6c-7,0-12.6-5.7-12.6-12.6s5.7-12.6,12.6-12.6
					C409.3,379.8,414.9,385.5,414.9,392.4"/>
				<path id="Fill-5" class="st2" d="M348.6,442.5c0,7-5.7,12.6-12.6,12.6s-12.6-5.7-12.6-12.6s5.7-12.6,12.6-12.6
					S348.6,435.6,348.6,442.5"/>
				<path id="Fill-7" class="st3" d="M268.6,465.3c0,7-5.7,12.6-12.6,12.6c-7,0-12.6-5.7-12.6-12.6c0-7,5.7-12.6,12.6-12.6
					C262.9,452.6,268.6,458.3,268.6,465.3"/>
				<path id="Fill-9" class="st4" d="M185.8,457.6c0,7-5.7,12.6-12.6,12.6c-7,0-12.6-5.7-12.6-12.6s5.7-12.6,12.6-12.6
					C180.1,445,185.8,450.6,185.8,457.6"/>
				<path id="Fill-11" class="st5" d="M111.4,420.6c0,7-5.7,12.6-12.6,12.6c-7,0-12.6-5.7-12.6-12.6c0-7,5.7-12.6,12.6-12.6
					C105.7,407.9,111.4,413.6,111.4,420.6"/>
				<path id="Fill-13" class="st6" d="M55.3,359.1c0,7-5.7,12.6-12.6,12.6c-7,0-12.6-5.7-12.6-12.6c0-7,5.7-12.6,12.6-12.6
					C49.7,346.5,55.3,352.2,55.3,359.1"/>
				<path id="Fill-15" class="st7" d="M25.3,281.6c0,7-5.7,12.6-12.6,12.6c-7,0-12.6-5.7-12.6-12.6c0-7,5.7-12.6,12.6-12.6
					C19.6,269,25.3,274.6,25.3,281.6"/>
				<path id="Fill-17" class="st8" d="M25.3,198.5c0,7-5.7,12.6-12.6,12.6c-7,0-12.6-5.7-12.6-12.6c0-7,5.7-12.6,12.6-12.6
					C19.6,185.8,25.3,191.5,25.3,198.5"/>
				<path id="Fill-19" class="st9" d="M55.3,121c0,7-5.7,12.6-12.6,12.6c-7,0-12.6-5.7-12.6-12.6c0-7,5.7-12.6,12.6-12.6
					C49.7,108.3,55.3,114,55.3,121"/>
				<path id="Fill-21" class="st10" d="M111.4,59.5c0,7-5.7,12.6-12.6,12.6c-7,0-12.6-5.7-12.6-12.6c0-7,5.7-12.6,12.6-12.6
					C105.7,46.9,111.4,52.6,111.4,59.5"/>
				<path id="Fill-23" class="st11" d="M185.8,22.5c0,7-5.7,12.6-12.6,12.6c-7,0-12.6-5.7-12.6-12.6c0-7,5.7-12.6,12.6-12.6
					C180.1,9.9,185.8,15.5,185.8,22.5"/>
				<g id="Group-27" transform="translate(241.557692, 1.918083)">
					<g id="Clip-26">
					</g>
					<defs>
						<filter id="Adobe_OpacityMaskFilter" filterUnits="userSpaceOnUse" x="1.7" y="0.3" width="25.3" height="25.3">
							<feColorMatrix  type="matrix" values="1 0 0 0 0  0 1 0 0 0  0 0 1 0 0  0 0 0 1 0"/>
						</filter>
					</defs>
					
						<mask maskUnits="userSpaceOnUse" x="1.7" y="0.3" width="25.3" height="25.3" id="mask-2_00000178911341528246259790000008386148226897229227_">
						<g class="st12">
							<polygon id="path-1_00000099663538196511948620000001479326282934577564_" class="st13" points="1.7,0.3 27,0.3 27,25.5 
								1.7,25.5 							"/>
						</g>
					</mask>
					<path id="Fill-25" class="st14" d="M27,12.9c0,7-5.7,12.6-12.6,12.6c-7,0-12.6-5.7-12.6-12.6S7.4,0.3,14.4,0.3
						C21.4,0.3,27,5.9,27,12.9"/>
				</g>
				<path id="Fill-28" class="st15" d="M348.6,37.6c0,7-5.7,12.6-12.6,12.6s-12.6-5.7-12.6-12.6s5.7-12.6,12.6-12.6
					S348.6,30.6,348.6,37.6"/>
				<path id="Fill-30" class="st16" d="M414.9,87.7c0,7-5.7,12.6-12.6,12.6c-7,0-12.6-5.7-12.6-12.6c0-7,5.7-12.6,12.6-12.6
					C409.3,75,414.9,80.7,414.9,87.7"/>
				<path id="Fill-32" class="st17" d="M458.7,158.3c0,7-5.7,12.6-12.6,12.6c-7,0-12.6-5.7-12.6-12.6c0-7,5.7-12.6,12.6-12.6
					C453.1,145.7,458.7,151.4,458.7,158.3"/>
				<path id="Fill-34" class="st18" d="M474,240.1c0,7-5.7,12.6-12.6,12.6c-7,0-12.6-5.7-12.6-12.6s5.7-12.6,12.6-12.6
					C468.3,227.4,474,233.1,474,240.1"/>
				<line id="Stroke-36" class="st19" x1="429" y1="165" x2="426.9" y2="165.8"/>
				<line id="Stroke-38" class="st20" x1="419.3" y1="168.8" x2="389" y2="180.7"/>
				<line id="Stroke-40" class="st19" x1="385.2" y1="182.1" x2="383" y2="183"/>
				<path id="Stroke-44" class="st21" d="M387.6,240.1c0,83.1-67.4,150.5-150.6,150.5c-83.2,0-150.6-67.4-150.6-150.5
					c0-83.1,67.4-150.5,150.6-150.5C320.2,89.5,387.6,156.9,387.6,240.1z"/>
				<path id="Fill-46" class="st17" d="M169.7,183.2v-17.4l-6.2,17.4H169.7z M169.7,189.1h-12.3v-6.2l10.7-25.1h8.7v25.3h4.1v5.9
					h-4.1v9.7h-7.1V189.1z"/>
				<polygon id="Fill-48" class="st17" points="197.5,173.5 197.5,157.8 204,157.8 204,159.9 200.3,159.9 200.3,164.3 203.3,164.3 
					203.3,166.4 200.3,166.4 200.3,171.5 204.1,171.5 204.1,173.5 				"/>
				<path id="Fill-50" class="st17" d="M208.7,171.5h0.8c0.3,0,0.5,0,0.7-0.1c0.2-0.1,0.4-0.1,0.5-0.2c0.1-0.1,0.3-0.2,0.4-0.3
					c0.1-0.2,0.2-0.3,0.2-0.4c0-0.1,0.1-0.3,0.1-0.6c0-0.3,0-0.5,0-0.7c0-0.2,0-0.5,0-0.8v-5.7c0-0.4,0-0.7,0-0.9
					c0-0.2,0-0.5-0.1-0.7c0-0.2-0.1-0.4-0.2-0.5c-0.1-0.1-0.2-0.2-0.4-0.3c-0.2-0.1-0.3-0.2-0.6-0.2c-0.2,0-0.5-0.1-0.8-0.1h-0.8
					V171.5z M205.9,173.5v-15.6h3.6c0.9,0,1.7,0.1,2.4,0.3c0.6,0.2,1.1,0.5,1.5,0.9c0.4,0.4,0.7,0.9,0.8,1.5
					c0.2,0.6,0.2,1.3,0.2,2.2v5.6c0,0.9-0.1,1.7-0.2,2.3c-0.2,0.6-0.4,1.2-0.8,1.6c-0.4,0.4-0.9,0.8-1.5,1c-0.6,0.2-1.4,0.3-2.3,0.3
					H205.9z"/>
				<path id="Fill-52" class="st17" d="M221,173.7c-0.7,0-1.3-0.1-1.8-0.2c-0.5-0.2-0.9-0.4-1.3-0.7c-0.3-0.3-0.6-0.7-0.8-1.1
					c-0.2-0.5-0.3-1-0.4-1.5c-0.1-0.5-0.1-1.2-0.1-1.9v-10.4h2.8v10.7c0,0.4,0,0.7,0,0.9c0,0.3,0.1,0.5,0.1,0.8
					c0.1,0.3,0.2,0.5,0.3,0.7c0.1,0.2,0.3,0.3,0.5,0.4c0.2,0.1,0.4,0.2,0.7,0.2c0.3,0,0.5-0.1,0.7-0.2c0.2-0.1,0.4-0.3,0.5-0.4
					c0.1-0.2,0.2-0.4,0.3-0.7c0.1-0.3,0.1-0.6,0.1-0.8c0-0.3,0-0.6,0-0.9v-10.7h2.8v10.4c0,0.7,0,1.3-0.1,1.9
					c-0.1,0.5-0.2,1-0.4,1.5c-0.2,0.5-0.5,0.8-0.8,1.1c-0.3,0.3-0.7,0.5-1.3,0.7C222.3,173.6,221.7,173.7,221,173.7"/>
				<path id="Fill-54" class="st17" d="M231.9,173.7c-0.7,0-1.3-0.1-1.8-0.3c-0.5-0.2-0.9-0.4-1.3-0.7c-0.3-0.3-0.6-0.7-0.8-1.1
					c-0.2-0.4-0.4-0.9-0.4-1.4c-0.1-0.5-0.1-1.1-0.1-1.7V163c0-0.7,0-1.3,0.1-1.8c0.1-0.5,0.2-1,0.4-1.5c0.2-0.5,0.5-0.8,0.8-1.1
					c0.3-0.3,0.8-0.5,1.3-0.7c0.5-0.2,1.1-0.2,1.8-0.2c0.8,0,1.4,0.1,2,0.3c0.6,0.2,1,0.5,1.3,0.9c0.3,0.4,0.6,0.9,0.7,1.4
					c0.1,0.5,0.2,1.2,0.2,1.9v1.3h-2.7v-1.3c0-0.8,0-1.3-0.1-1.6c-0.2-0.5-0.6-0.8-1.2-0.9h-0.2c-0.2,0-0.4,0-0.6,0.1
					c-0.2,0.1-0.3,0.1-0.4,0.3c-0.1,0.1-0.2,0.3-0.3,0.4c-0.1,0.1-0.1,0.3-0.2,0.5c0,0.2-0.1,0.4-0.1,0.6c0,0.2,0,0.4,0,0.7v6.6
					c0,0.9,0.1,1.6,0.3,2c0.2,0.4,0.6,0.6,1.2,0.6c0.2,0,0.4,0,0.5-0.1c0.2,0,0.3-0.1,0.4-0.2c0.1-0.1,0.2-0.2,0.3-0.3
					s0.1-0.3,0.2-0.4c0-0.1,0.1-0.3,0.1-0.5c0-0.2,0-0.4,0-0.5c0-0.1,0-0.3,0-0.6v-1.4h2.7v1.3c0,0.6,0,1.1-0.1,1.6
					s-0.2,0.9-0.4,1.3c-0.2,0.4-0.5,0.7-0.8,1c-0.3,0.3-0.7,0.5-1.2,0.6C233.1,173.6,232.6,173.7,231.9,173.7"/>
				<path id="Fill-56" class="st17" d="M241.1,168h2.1l-1-6.4L241.1,168z M237.4,173.5l3.2-15.6h3l3.2,15.6h-2.7l-0.6-3.6h-2.7
					l-0.6,3.6H237.4z"/>
				<path id="Fill-58" class="st17" d="M252.6,173.7c-0.7,0-1.3-0.1-1.8-0.3c-0.5-0.2-0.9-0.4-1.3-0.7c-0.3-0.3-0.6-0.7-0.8-1.1
					c-0.2-0.4-0.4-0.9-0.4-1.4c-0.1-0.5-0.1-1.1-0.1-1.7V163c0-0.7,0-1.3,0.1-1.8c0.1-0.5,0.2-1,0.4-1.5c0.2-0.5,0.5-0.8,0.8-1.1
					c0.3-0.3,0.8-0.5,1.3-0.7c0.5-0.2,1.1-0.2,1.8-0.2c0.8,0,1.4,0.1,2,0.3c0.6,0.2,1,0.5,1.3,0.9c0.3,0.4,0.6,0.9,0.7,1.4
					c0.1,0.5,0.2,1.2,0.2,1.9v1.3h-2.7v-1.3c0-0.8,0-1.3-0.1-1.6c-0.2-0.5-0.6-0.8-1.2-0.9h-0.2c-0.2,0-0.4,0-0.6,0.1
					c-0.2,0.1-0.3,0.1-0.4,0.3c-0.1,0.1-0.2,0.3-0.3,0.4c-0.1,0.1-0.1,0.3-0.2,0.5c0,0.2-0.1,0.4-0.1,0.6s0,0.4,0,0.7v6.6
					c0,0.9,0.1,1.6,0.3,2c0.2,0.4,0.6,0.6,1.2,0.6c0.2,0,0.4,0,0.5-0.1c0.2,0,0.3-0.1,0.4-0.2c0.1-0.1,0.2-0.2,0.3-0.3
					s0.1-0.3,0.2-0.4c0-0.1,0.1-0.3,0.1-0.5c0-0.2,0-0.4,0-0.5c0-0.1,0-0.3,0-0.6v-1.4h2.7v1.3c0,0.6,0,1.1-0.1,1.6
					c-0.1,0.5-0.2,0.9-0.4,1.3c-0.2,0.4-0.5,0.7-0.8,1c-0.3,0.3-0.7,0.5-1.2,0.6C253.9,173.6,253.3,173.7,252.6,173.7"/>
				<g id="Clip-61">
				</g>
				<defs>
					
						<filter id="Adobe_OpacityMaskFilter_00000005256316749366446540000000915311857799716268_" filterUnits="userSpaceOnUse" x="259.1" y="157.8" width="2.8" height="15.6">
						<feColorMatrix  type="matrix" values="1 0 0 0 0  0 1 0 0 0  0 0 1 0 0  0 0 0 1 0"/>
					</filter>
				</defs>
				
					<mask maskUnits="userSpaceOnUse" x="259.1" y="157.8" width="2.8" height="15.6" id="mask-4_00000159436365637995403880000016367854984144078009_">
					<g style="filter:url(#Adobe_OpacityMaskFilter_00000005256316749366446540000000915311857799716268_);">
						<polygon id="path-3_00000101812434871621145900000006827885397042456251_" class="st13" points="0,477.9 474,477.9 474,2.2 
							0,2.2 						"/>
					</g>
				</mask>
				<polygon id="Fill-60" class="st23" points="259.1,173.5 261.9,173.5 261.9,157.8 259.1,157.8 				"/>
				<defs>
					
						<filter id="Adobe_OpacityMaskFilter_00000033363679706167763190000003091807388445069226_" filterUnits="userSpaceOnUse" x="264.2" y="152.7" width="9" height="21">
						<feColorMatrix  type="matrix" values="1 0 0 0 0  0 1 0 0 0  0 0 1 0 0  0 0 0 1 0"/>
					</filter>
				</defs>
				
					<mask maskUnits="userSpaceOnUse" x="264.2" y="152.7" width="9" height="21" id="mask-4_00000128444408428178224190000016176676262907683477_">
					<g style="filter:url(#Adobe_OpacityMaskFilter_00000033363679706167763190000003091807388445069226_);">
						<polygon id="path-3_00000096776116025678180290000013000456324702007431_" class="st13" points="0,477.9 474,477.9 474,2.2 
							0,2.2 						"/>
					</g>
				</mask>
				<path id="Fill-62" class="st25" d="M267.9,156.5l1.2-3.9h2.7l-2.3,3.9H267.9z M268,171.4c0.2,0.1,0.4,0.1,0.7,0.1
					c0.3,0,0.5,0,0.7-0.1c0.2-0.1,0.4-0.2,0.5-0.3c0.1-0.1,0.2-0.3,0.3-0.5c0.1-0.2,0.1-0.4,0.1-0.6c0-0.2,0-0.5,0-0.8v-7.1
					c0-0.4,0-0.7-0.1-0.9c0-0.3-0.1-0.5-0.2-0.7c-0.1-0.2-0.3-0.4-0.5-0.5c-0.2-0.1-0.5-0.2-0.8-0.2c-0.3,0-0.6,0.1-0.8,0.2
					c-0.2,0.1-0.4,0.3-0.5,0.5c-0.1,0.2-0.2,0.5-0.2,0.7c0,0.3-0.1,0.6-0.1,0.9v7.1c0,0.3,0,0.6,0,0.8c0,0.2,0.1,0.4,0.1,0.6
					c0.1,0.2,0.2,0.4,0.3,0.5C267.6,171.3,267.8,171.4,268,171.4L268,171.4z M268.7,173.7c-1.6,0-2.8-0.4-3.5-1.3
					c-0.7-0.9-1.1-2.2-1.1-3.8v-5.8c0-0.8,0.1-1.6,0.2-2.2c0.2-0.6,0.4-1.1,0.8-1.6c0.4-0.5,0.8-0.8,1.4-1c0.6-0.2,1.3-0.3,2.1-0.3
					c1.6,0,2.8,0.4,3.5,1.3c0.7,0.9,1.1,2.1,1.1,3.8v5.8c0,0.8-0.1,1.5-0.2,2.2s-0.4,1.2-0.8,1.6c-0.4,0.5-0.8,0.8-1.4,1
					C270.2,173.6,269.5,173.7,268.7,173.7L268.7,173.7z"/>
				<defs>
					
						<filter id="Adobe_OpacityMaskFilter_00000065034353062891659490000003580073365086392235_" filterUnits="userSpaceOnUse" x="275.4" y="157.8" width="8.2" height="15.6">
						<feColorMatrix  type="matrix" values="1 0 0 0 0  0 1 0 0 0  0 0 1 0 0  0 0 0 1 0"/>
					</filter>
				</defs>
				
					<mask maskUnits="userSpaceOnUse" x="275.4" y="157.8" width="8.2" height="15.6" id="mask-4_00000170240859263913535540000003514593222732046977_">
					<g style="filter:url(#Adobe_OpacityMaskFilter_00000065034353062891659490000003580073365086392235_);">
						<polygon id="path-3_00000106121085439468017050000007872403048720157375_" class="st13" points="0,477.9 474,477.9 474,2.2 
							0,2.2 						"/>
					</g>
				</mask>
				<polygon id="Fill-63" class="st27" points="275.4,173.5 275.4,157.8 277.4,157.8 281.2,166.7 281.2,157.8 283.6,157.8 
					283.6,173.5 281.7,173.5 277.8,164.2 277.8,173.5 				"/>
				<defs>
					
						<filter id="Adobe_OpacityMaskFilter_00000163039956734280574510000012652773434713573305_" filterUnits="userSpaceOnUse" x="197.5" y="183.4" width="8.6" height="15.6">
						<feColorMatrix  type="matrix" values="1 0 0 0 0  0 1 0 0 0  0 0 1 0 0  0 0 0 1 0"/>
					</filter>
				</defs>
				
					<mask maskUnits="userSpaceOnUse" x="197.5" y="183.4" width="8.6" height="15.6" id="mask-4_00000070815502061040984640000006492294650984311208_">
					<g style="filter:url(#Adobe_OpacityMaskFilter_00000163039956734280574510000012652773434713573305_);">
						<polygon id="path-3_00000170276716450451034280000013919087392491264903_" class="st13" points="0,477.9 474,477.9 474,2.2 
							0,2.2 						"/>
					</g>
				</mask>
				<path id="Fill-64" class="st29" d="M200.3,197.1h0.8c0.3,0,0.5,0,0.7-0.1c0.2-0.1,0.4-0.1,0.5-0.2c0.1-0.1,0.3-0.2,0.4-0.3
					c0.1-0.2,0.2-0.3,0.2-0.4c0.1-0.1,0.1-0.3,0.1-0.6c0-0.3,0-0.5,0-0.7c0-0.2,0-0.5,0-0.8v-5.7c0-0.4,0-0.7,0-0.9
					c0-0.2,0-0.5-0.1-0.7c0-0.2-0.1-0.4-0.2-0.5c-0.1-0.1-0.2-0.2-0.4-0.3c-0.2-0.1-0.3-0.2-0.6-0.2c-0.2,0-0.5-0.1-0.8-0.1h-0.8
					V197.1z M197.5,199.1v-15.6h3.6c0.9,0,1.7,0.1,2.4,0.3c0.6,0.2,1.1,0.5,1.5,0.9c0.4,0.4,0.7,0.9,0.8,1.5
					c0.2,0.6,0.2,1.3,0.2,2.2v5.6c0,0.9-0.1,1.7-0.2,2.3c-0.2,0.6-0.4,1.2-0.8,1.6c-0.4,0.4-0.9,0.8-1.5,1c-0.6,0.2-1.4,0.3-2.3,0.3
					H197.5z"/>
				<defs>
					
						<filter id="Adobe_OpacityMaskFilter_00000099642153919268004480000013461041057369419686_" filterUnits="userSpaceOnUse" x="208.1" y="183.4" width="6.6" height="15.6">
						<feColorMatrix  type="matrix" values="1 0 0 0 0  0 1 0 0 0  0 0 1 0 0  0 0 0 1 0"/>
					</filter>
				</defs>
				
					<mask maskUnits="userSpaceOnUse" x="208.1" y="183.4" width="6.6" height="15.6" id="mask-4_00000121256624284051069770000001767695040598759564_">
					<g style="filter:url(#Adobe_OpacityMaskFilter_00000099642153919268004480000013461041057369419686_);">
						<polygon id="path-3_00000134221817055537606700000007685310431680389566_" class="st13" points="0,477.9 474,477.9 474,2.2 
							0,2.2 						"/>
					</g>
				</mask>
				<polygon id="Fill-65" class="st31" points="208.1,199.1 208.1,183.4 214.6,183.4 214.6,185.4 210.9,185.4 210.9,189.9 
					213.9,189.9 213.9,191.9 210.9,191.9 210.9,197.1 214.7,197.1 214.7,199.1 				"/>
				<defs>
					
						<filter id="Adobe_OpacityMaskFilter_00000022560852814234284070000011866910027634474646_" filterUnits="userSpaceOnUse" x="220.6" y="183.2" width="8.7" height="16">
						<feColorMatrix  type="matrix" values="1 0 0 0 0  0 1 0 0 0  0 0 1 0 0  0 0 0 1 0"/>
					</filter>
				</defs>
				
					<mask maskUnits="userSpaceOnUse" x="220.6" y="183.2" width="8.7" height="16" id="mask-4_00000032609785171214324240000004796172704019796107_">
					<g style="filter:url(#Adobe_OpacityMaskFilter_00000022560852814234284070000011866910027634474646_);">
						<polygon id="path-3_00000163044713034538132920000004713707460152082599_" class="st13" points="0,477.9 474,477.9 474,2.2 
							0,2.2 						"/>
					</g>
				</mask>
				<path id="Fill-66" class="st33" d="M225,199.3c-0.7,0-1.3-0.1-1.8-0.3c-0.5-0.2-0.9-0.4-1.3-0.7c-0.3-0.3-0.6-0.7-0.8-1.1
					c-0.2-0.4-0.4-0.9-0.4-1.4c-0.1-0.5-0.1-1.1-0.1-1.7v-5.5c0-0.7,0-1.3,0.1-1.8c0.1-0.5,0.2-1,0.4-1.5c0.2-0.4,0.5-0.8,0.8-1.1
					c0.3-0.3,0.8-0.5,1.3-0.7c0.5-0.2,1.1-0.2,1.8-0.2c0.8,0,1.4,0.1,2,0.3c0.6,0.2,1,0.5,1.3,0.9c0.3,0.4,0.6,0.9,0.7,1.4
					c0.1,0.5,0.2,1.2,0.2,1.9v1.3h-2.7v-1.3c0-0.8,0-1.3-0.1-1.6c-0.2-0.5-0.6-0.8-1.2-0.8h-0.1c-0.2,0-0.4,0-0.6,0.1
					c-0.2,0.1-0.3,0.1-0.4,0.3c-0.1,0.1-0.2,0.3-0.3,0.4c-0.1,0.1-0.1,0.3-0.2,0.5c0,0.2-0.1,0.4-0.1,0.6c0,0.2,0,0.4,0,0.7v6.6
					c0,0.9,0.1,1.6,0.3,2c0.2,0.4,0.6,0.6,1.2,0.6c0.2,0,0.4,0,0.5-0.1c0.2,0,0.3-0.1,0.4-0.2c0.1-0.1,0.2-0.2,0.3-0.3
					c0.1-0.1,0.1-0.3,0.2-0.4c0-0.1,0.1-0.3,0.1-0.5c0-0.2,0-0.4,0-0.5c0-0.1,0-0.3,0-0.6v-1.4h2.7v1.3c0,0.6,0,1.1-0.1,1.6
					c-0.1,0.5-0.2,0.9-0.4,1.3c-0.2,0.4-0.5,0.7-0.8,1c-0.3,0.3-0.7,0.5-1.2,0.6S225.7,199.3,225,199.3"/>
				<defs>
					
						<filter id="Adobe_OpacityMaskFilter_00000106865330656352690390000001966529266287360957_" filterUnits="userSpaceOnUse" x="230.3" y="183.4" width="9.3" height="15.6">
						<feColorMatrix  type="matrix" values="1 0 0 0 0  0 1 0 0 0  0 0 1 0 0  0 0 0 1 0"/>
					</filter>
				</defs>
				
					<mask maskUnits="userSpaceOnUse" x="230.3" y="183.4" width="9.3" height="15.6" id="mask-4_00000129189775605694218540000017039093943273942463_">
					<g style="filter:url(#Adobe_OpacityMaskFilter_00000106865330656352690390000001966529266287360957_);">
						<polygon id="path-3_00000037656508353947670990000015908702881177626792_" class="st13" points="0,477.9 474,477.9 474,2.2 
							0,2.2 						"/>
					</g>
				</mask>
				<path id="Fill-67" class="st35" d="M234,193.6h2.1l-1-6.4L234,193.6z M230.3,199.1l3.2-15.6h3l3.2,15.6H237l-0.6-3.6h-2.7
					l-0.6,3.6H230.3z"/>
				<defs>
					
						<filter id="Adobe_OpacityMaskFilter_00000088096228410446342670000015178067604456918692_" filterUnits="userSpaceOnUse" x="241.1" y="183.4" width="6.6" height="15.6">
						<feColorMatrix  type="matrix" values="1 0 0 0 0  0 1 0 0 0  0 0 1 0 0  0 0 0 1 0"/>
					</filter>
				</defs>
				
					<mask maskUnits="userSpaceOnUse" x="241.1" y="183.4" width="6.6" height="15.6" id="mask-4_00000144310944968842640170000017668148623396236966_">
					<g style="filter:url(#Adobe_OpacityMaskFilter_00000088096228410446342670000015178067604456918692_);">
						<polygon id="path-3_00000141423700875698520310000002005407556992842660_" class="st13" points="0,477.9 474,477.9 474,2.2 
							0,2.2 						"/>
					</g>
				</mask>
				<polygon id="Fill-68" class="st37" points="241.1,199.1 241.1,183.4 244,183.4 244,197.1 247.7,197.1 247.7,199.1 				"/>
				<defs>
					
						<filter id="Adobe_OpacityMaskFilter_00000019677278673293344710000000081871195950033039_" filterUnits="userSpaceOnUse" x="249.2" y="183.4" width="2.8" height="15.6">
						<feColorMatrix  type="matrix" values="1 0 0 0 0  0 1 0 0 0  0 0 1 0 0  0 0 0 1 0"/>
					</filter>
				</defs>
				
					<mask maskUnits="userSpaceOnUse" x="249.2" y="183.4" width="2.8" height="15.6" id="mask-4_00000107554064195258358510000003884600786589863082_">
					<g style="filter:url(#Adobe_OpacityMaskFilter_00000019677278673293344710000000081871195950033039_);">
						<polygon id="path-3_00000080186537066626251850000000512037449134721702_" class="st13" points="0,477.9 474,477.9 474,2.2 
							0,2.2 						"/>
					</g>
				</mask>
				<polygon id="Fill-69" class="st39" points="249.2,199.1 252,199.1 252,183.4 249.2,183.4 				"/>
				<defs>
					
						<filter id="Adobe_OpacityMaskFilter_00000173842120298876992760000013354866360155659948_" filterUnits="userSpaceOnUse" x="254.3" y="183.4" width="8.6" height="15.6">
						<feColorMatrix  type="matrix" values="1 0 0 0 0  0 1 0 0 0  0 0 1 0 0  0 0 0 1 0"/>
					</filter>
				</defs>
				
					<mask maskUnits="userSpaceOnUse" x="254.3" y="183.4" width="8.6" height="15.6" id="mask-4_00000059303357170090476930000002269930527823513518_">
					<g style="filter:url(#Adobe_OpacityMaskFilter_00000173842120298876992760000013354866360155659948_);">
						<polygon id="path-3_00000111193374305649605260000011587888030596708265_" class="st13" points="0,477.9 474,477.9 474,2.2 
							0,2.2 						"/>
					</g>
				</mask>
				<path id="Fill-70" class="st41" d="M257.2,197.1h0.8c0.3,0,0.5,0,0.7-0.1c0.2-0.1,0.4-0.1,0.5-0.2c0.1-0.1,0.3-0.2,0.4-0.3
					c0.1-0.2,0.2-0.3,0.2-0.4c0.1-0.1,0.1-0.3,0.1-0.6c0-0.3,0-0.5,0-0.7c0-0.2,0-0.5,0-0.8v-5.7c0-0.4,0-0.7,0-0.9
					c0-0.2,0-0.5-0.1-0.7c0-0.2-0.1-0.4-0.2-0.5c-0.1-0.1-0.2-0.2-0.4-0.3c-0.2-0.1-0.3-0.2-0.6-0.2c-0.2,0-0.5-0.1-0.8-0.1h-0.8
					V197.1z M254.3,199.1v-15.6h3.6c0.9,0,1.7,0.1,2.4,0.3c0.6,0.2,1.1,0.5,1.5,0.9c0.4,0.4,0.7,0.9,0.8,1.5
					c0.2,0.6,0.2,1.3,0.2,2.2v5.6c0,0.9-0.1,1.7-0.2,2.3c-0.2,0.6-0.4,1.2-0.8,1.6c-0.4,0.4-0.9,0.8-1.5,1c-0.6,0.2-1.4,0.3-2.3,0.3
					H254.3z"/>
				<defs>
					
						<filter id="Adobe_OpacityMaskFilter_00000134951847742047459790000011466474961030752414_" filterUnits="userSpaceOnUse" x="263.9" y="183.4" width="9.3" height="15.6">
						<feColorMatrix  type="matrix" values="1 0 0 0 0  0 1 0 0 0  0 0 1 0 0  0 0 0 1 0"/>
					</filter>
				</defs>
				
					<mask maskUnits="userSpaceOnUse" x="263.9" y="183.4" width="9.3" height="15.6" id="mask-4_00000021815713272478622720000002574592216890955394_">
					<g style="filter:url(#Adobe_OpacityMaskFilter_00000134951847742047459790000011466474961030752414_);">
						<polygon id="path-3_00000124139383376382186390000000540053325275157159_" class="st13" points="0,477.9 474,477.9 474,2.2 
							0,2.2 						"/>
					</g>
				</mask>
				<path id="Fill-71" class="st43" d="M267.5,193.6h2.1l-1-6.4L267.5,193.6z M263.9,199.1l3.2-15.6h3l3.2,15.6h-2.7l-0.6-3.6h-2.7
					l-0.6,3.6H263.9z"/>
				<defs>
					
						<filter id="Adobe_OpacityMaskFilter_00000134224935934350267330000014134694888502936476_" filterUnits="userSpaceOnUse" x="274.7" y="183.4" width="8.6" height="15.6">
						<feColorMatrix  type="matrix" values="1 0 0 0 0  0 1 0 0 0  0 0 1 0 0  0 0 0 1 0"/>
					</filter>
				</defs>
				
					<mask maskUnits="userSpaceOnUse" x="274.7" y="183.4" width="8.6" height="15.6" id="mask-4_00000142135002696970234180000017351746122690297273_">
					<g style="filter:url(#Adobe_OpacityMaskFilter_00000134224935934350267330000014134694888502936476_);">
						<polygon id="path-3_00000176007654900306376300000008934436727896918166_" class="st13" points="0,477.9 474,477.9 474,2.2 
							0,2.2 						"/>
					</g>
				</mask>
				<path id="Fill-72" class="st45" d="M277.5,197.1h0.8c0.3,0,0.5,0,0.7-0.1c0.2-0.1,0.4-0.1,0.5-0.2c0.1-0.1,0.3-0.2,0.4-0.3
					c0.1-0.2,0.2-0.3,0.2-0.4c0-0.1,0.1-0.3,0.1-0.6c0-0.3,0-0.5,0-0.7c0-0.2,0-0.5,0-0.8v-5.7c0-0.4,0-0.7,0-0.9
					c0-0.2,0-0.5-0.1-0.7c0-0.2-0.1-0.4-0.2-0.5c-0.1-0.1-0.2-0.2-0.4-0.3c-0.2-0.1-0.3-0.2-0.6-0.2c-0.2,0-0.5-0.1-0.8-0.1h-0.8
					V197.1z M274.7,199.1v-15.6h3.6c0.9,0,1.7,0.1,2.4,0.3c0.6,0.2,1.1,0.5,1.5,0.9c0.4,0.4,0.7,0.9,0.8,1.5
					c0.2,0.6,0.2,1.3,0.2,2.2v5.6c0,0.9-0.1,1.7-0.2,2.3c-0.2,0.6-0.4,1.2-0.8,1.6c-0.4,0.4-0.9,0.8-1.5,1c-0.6,0.2-1.4,0.3-2.3,0.3
					H274.7z"/>
				<defs>
					
						<filter id="Adobe_OpacityMaskFilter_00000047767828903004425250000000918479786699228088_" filterUnits="userSpaceOnUse" x="197.5" y="232" width="38.7" height="83.9">
						<feColorMatrix  type="matrix" values="1 0 0 0 0  0 1 0 0 0  0 0 1 0 0  0 0 0 1 0"/>
					</filter>
				</defs>
				
					<mask maskUnits="userSpaceOnUse" x="197.5" y="232" width="38.7" height="83.9" id="mask-4_00000046314237765183026230000010719436739199355577_">
					<g style="filter:url(#Adobe_OpacityMaskFilter_00000047767828903004425250000000918479786699228088_);">
						<polygon id="path-3_00000080180615246044007770000005024712367701294481_" class="st13" points="0,477.9 474,477.9 474,2.2 
							0,2.2 						"/>
					</g>
				</mask>
				<polygon id="Fill-73" class="st47" points="236.2,254.4 197.5,232 197.5,304.3 236.2,316 				"/>
				<defs>
					
						<filter id="Adobe_OpacityMaskFilter_00000075877679131835433920000005755009129345386162_" filterUnits="userSpaceOnUse" x="240.4" y="232" width="39" height="84">
						<feColorMatrix  type="matrix" values="1 0 0 0 0  0 1 0 0 0  0 0 1 0 0  0 0 0 1 0"/>
					</filter>
				</defs>
				
					<mask maskUnits="userSpaceOnUse" x="240.4" y="232" width="39" height="84" id="mask-4_00000016047608484450053990000003349402417943939498_">
					<g style="filter:url(#Adobe_OpacityMaskFilter_00000075877679131835433920000005755009129345386162_);">
						<polygon id="path-3_00000027572595715930923610000016151117635232769676_" class="st13" points="0,477.9 474,477.9 474,2.2 
							0,2.2 						"/>
					</g>
				</mask>
				<polygon id="Fill-74" class="st49" points="240.4,254.5 240.4,316 279.4,304.3 279.4,232 				"/>
				<defs>
					
						<filter id="Adobe_OpacityMaskFilter_00000042727022401416015310000004444796452652987069_" filterUnits="userSpaceOnUse" x="300.6" y="238.7" width="9.2" height="80.3">
						<feColorMatrix  type="matrix" values="1 0 0 0 0  0 1 0 0 0  0 0 1 0 0  0 0 0 1 0"/>
					</filter>
				</defs>
				
					<mask maskUnits="userSpaceOnUse" x="300.6" y="238.7" width="9.2" height="80.3" id="mask-4_00000109732110304342406760000008653366724237227418_">
					<g style="filter:url(#Adobe_OpacityMaskFilter_00000042727022401416015310000004444796452652987069_);">
						<polygon id="path-3_00000111163146620724728450000007178292331971079050_" class="st13" points="0,477.9 474,477.9 474,2.2 
							0,2.2 						"/>
					</g>
				</mask>
				<polygon id="Fill-75" class="st51" points="301.7,303 300.6,303 305.2,319 309.8,303 308.6,303 309.8,303 309.8,238.7 
					308.6,238.7 307.5,238.7 306.3,238.7 304,238.7 302.9,238.7 301.7,238.7 300.6,238.7 300.6,303 				"/>
				<defs>
					
						<filter id="Adobe_OpacityMaskFilter_00000128471403414199609890000007043340077907272089_" filterUnits="userSpaceOnUse" x="189.2" y="231.9" width="98.5" height="92.2">
						<feColorMatrix  type="matrix" values="1 0 0 0 0  0 1 0 0 0  0 0 1 0 0  0 0 0 1 0"/>
					</filter>
				</defs>
				
					<mask maskUnits="userSpaceOnUse" x="189.2" y="231.9" width="98.5" height="92.2" id="mask-4_00000005256998580525474190000001986709462790964877_">
					<g style="filter:url(#Adobe_OpacityMaskFilter_00000128471403414199609890000007043340077907272089_);">
						<polygon id="path-3_00000090253637717204052810000013001091811351896749_" class="st13" points="0,477.9 474,477.9 474,2.2 
							0,2.2 						"/>
					</g>
				</mask>
				<polygon id="Fill-76" class="st53" points="287.7,235.1 283.5,231.9 283.5,306.3 240.5,320.2 238.5,320.2 238.1,320.2 
					236.2,320.2 193.3,308.2 193.3,231.9 189.2,235.1 189.2,311.1 236,324.1 238.1,324.1 238.5,324.1 240.7,324.1 283.9,310.4 
					287.7,309.2 				"/>
				<defs>
					
						<filter id="Adobe_OpacityMaskFilter_00000106147661612447009200000005641877992996045191_" filterUnits="userSpaceOnUse" x="300.6" y="225.6" width="9.2" height="9.5">
						<feColorMatrix  type="matrix" values="1 0 0 0 0  0 1 0 0 0  0 0 1 0 0  0 0 0 1 0"/>
					</filter>
				</defs>
				
					<mask maskUnits="userSpaceOnUse" x="300.6" y="225.6" width="9.2" height="9.5" id="mask-4_00000088820215341349490640000006451393267928008320_">
					<g style="filter:url(#Adobe_OpacityMaskFilter_00000106147661612447009200000005641877992996045191_);">
						<polygon id="path-3_00000070823673309468516590000011889751433698811289_" class="st13" points="0,477.9 474,477.9 474,2.2 
							0,2.2 						"/>
					</g>
				</mask>
				<path id="Fill-77" class="st55" d="M309.8,230.2c0-2.5-2.1-4.6-4.6-4.6c-2.5,0-4.6,2.1-4.6,4.6v4.9h9.2V230.2z"/>
			</g>
		</g>
	</g>
</g>
</svg>
